# xmcd CD database file
#
# Track frame offsets:
#	150
#	21155
#	39158
#	60245
#
# Disc length: 1081 seconds
#
# Revision: 0
# Processed by: cddbd v1.5PL3 Copyright (c) Steve Scherf et al.
# Submitted via: CDex 1.50beta9
#
DISCID=22043704
DTITLE=Full Of Harmony - Exclusive
DYEAR=2004
DGENRE=R&B
TTITLE0=Exclusive
TTITLE1=MONKEY MAGIC -三蔵FOH師の巻-
TTITLE2=Exclusive BL remix
TTITLE3=Exclusive instrumental
EXTD=YEAR: 2004
EXTT0=
EXTT1=
EXTT2=
EXTT3=
PLAYORDER=
